<?xml version="1.0" encoding="UTF-8" standalone="no"?>
<svg
   width="254.61641mm"
   height="147.96059mm"
   viewBox="0 0 254.61641 147.96059"
   version="1.1"
   id="track-svg"
   inkscape:version="1.3 (0e150ed, 2023-07-21)"
   sodipodi:docname="track.svg"
   xmlns:inkscape="http://www.inkscape.org/namespaces/inkscape"
   xmlns:sodipodi="http://sodipodi.sourceforge.net/DTD/sodipodi-0.dtd"
   xmlns="http://www.w3.org/2000/svg"
   xmlns:svg="http://www.w3.org/2000/svg"
   xmlns:rdf="http://www.w3.org/1999/02/22-rdf-syntax-ns#"
   xmlns:cc="http://creativecommons.org/ns#"
   xmlns:dc="http://purl.org/dc/elements/1.1/">
  <defs
     id="defs2">
    <rect
       x="257.96857"
       y="31.503074"
       width="83.810066"
       height="92.72603"
       id="rect1" />
    <rect
       x="257.96857"
       y="31.503075"
       width="83.810066"
       height="92.726028"
       id="rect1-8" />
    <rect
       x="257.96857"
       y="31.503075"
       width="83.810066"
       height="92.726028"
       id="rect1-9" />
    <rect
       x="257.96857"
       y="31.503075"
       width="83.810066"
       height="92.726028"
       id="rect1-2" />
    <rect
       x="257.96857"
       y="31.503075"
       width="83.810066"
       height="92.726028"
       id="rect1-3" />
    <rect
       x="257.96857"
       y="31.503075"
       width="83.810066"
       height="92.726028"
       id="rect1-0" />
  </defs>
  <sodipodi:namedview
     id="base"
     pagecolor="#ffffff"
     bordercolor="#666666"
     borderopacity="1.0"
     inkscape:pageopacity="0.0"
     inkscape:pageshadow="2"
     inkscape:zoom="1.0534786"
     inkscape:cx="627.91972"
     inkscape:cy="204.56039"
     inkscape:document-units="mm"
     inkscape:current-layer="layer1"
     showgrid="false"
     inkscape:window-width="1800"
     inkscape:window-height="1126"
     inkscape:window-x="0"
     inkscape:window-y="43"
     inkscape:window-maximized="0"
     inkscape:snap-global="false"
     fit-margin-top="0"
     fit-margin-left="0"
     fit-margin-right="0"
     fit-margin-bottom="0"
     inkscape:document-rotation="0"
     inkscape:showpageshadow="2"
     inkscape:pagecheckerboard="0"
     inkscape:deskcolor="#d1d1d1" />
  <metadata
     id="metadata5">
    <rdf:RDF>
      <cc:Work
         rdf:about="">
        <dc:format>image/svg+xml</dc:format>
        <dc:type
           rdf:resource="http://purl.org/dc/dcmitype/StillImage" />
        <dc:title />
      </cc:Work>
    </rdf:RDF>
  </metadata>
  <g
     inkscape:label="Layer 1"
     inkscape:groupmode="layer"
     id="layer1"
     transform="translate(-20.032494,-117.77103)">
    <path
       id="track"
       style="fill:none;stroke:#000000;stroke-width:3;stroke-linecap:butt;stroke-linejoin:miter;stroke-opacity:1;stroke-miterlimit:4;stroke-dasharray:none"
       d="m 201.87601,174.23259 v 34.58823 m -82.10212,22.32256 v 34.58823 m 82.61029,-34.58823 v 34.58823 m 0,-147.46323 v 34.58823 m -83.53676,-34.58823 v 34.58823 M 274.6489,192 H 128.42095 m 130.78676,1.15809 c 0,0 -3.86029,56.66912 -56.66911,56.97795 -52.80883,0.30882 -78.13235,0.1544 -78.13235,0.1544 0,0 -68.404415,4.32353 -69.176474,-20.84559 -0.456126,-14.86969 5.643723,-21.84162 15.589081,-23.66058 6.888615,-1.2599 18.254329,0.1193 24.712387,3.27823 7.469606,3.65373 17.223336,7.42239 26.713236,7.56618 10.19117,0.15441 24.08647,-3.92439 26.25,-10.96324 2.16353,-7.03885 1.54411,-12.97059 1.54411,-12.97059 m 109.16912,-0.46324 c 0,0 -3.86029,-56.6691 -56.66911,-56.97793 -52.80883,-0.30882 -78.13235,-0.15442 -78.13235,-0.15442 0,0 -68.404415,-4.32353 -69.176474,20.84559 -0.456126,14.86969 5.643723,21.84162 15.589081,23.66058 6.888615,1.2599 18.254329,-0.1193 24.712387,-3.27823 7.469606,-3.65373 17.223336,-7.42239 26.713236,-7.56618 10.19117,-0.15441 24.08647,3.92439 26.25,10.96324 2.16353,7.03885 1.54411,12.97059 1.54411,12.97059"
       inkscape:connector-curvature="0" />
    <path
       style="fill:none;stroke:#000000;stroke-width:3;stroke-linecap:butt;stroke-linejoin:miter;stroke-opacity:1;stroke-miterlimit:4;stroke-dasharray:none"
       d="m 25.3511,171.96508 v 40.06985"
       id="wall"
       inkscape:connector-curvature="0" />
    <text
       xml:space="preserve"
       transform="matrix(0.26458333,0,0,0.26458333,36.675155,109.59311)"
       id="text1"
       style="font-size:53.3333px;white-space:pre;shape-inside:url(#rect1);fill:#000000;fill-opacity:1;stroke:#000000;stroke-width:0.0377953"><tspan
         x="257.96875"
         y="80.161494"
         id="tspan3">3</tspan></text>
    <text
       xml:space="preserve"
       transform="matrix(0.26458333,0,0,0.26458333,121.38949,109.67072)"
       id="text1-3"
       style="font-size:53.3333px;white-space:pre;shape-inside:url(#rect1-8);fill:#000000;fill-opacity:1;stroke:#000000;stroke-width:0.0377953"><tspan
         x="257.96875"
         y="80.161494"
         id="tspan4">2</tspan></text>
    <text
       xml:space="preserve"
       transform="matrix(0.26458333,0,0,0.26458333,121.44612,166.22972)"
       id="text1-0"
       style="font-size:53.3333px;white-space:pre;shape-inside:url(#rect1-9);fill:#000000;fill-opacity:1;stroke:#000000;stroke-width:0.0377953"><tspan
         x="257.96875"
         y="80.161494"
         id="tspan5">1</tspan></text>
    <text
       xml:space="preserve"
       transform="matrix(0.26458333,0,0,0.26458333,120.61724,224.77484)"
       id="text1-2"
       style="font-size:53.3333px;white-space:pre;shape-inside:url(#rect1-2);fill:#000000;fill-opacity:1;stroke:#000000;stroke-width:0.0377953"><tspan
         x="257.96875"
         y="80.161494"
         id="tspan6">0</tspan></text>
    <text
       xml:space="preserve"
       transform="matrix(0.26458333,0,0,0.26458333,39.195108,225.88759)"
       id="text1-7"
       style="font-size:53.3333px;white-space:pre;shape-inside:url(#rect1-3);fill:#000000;fill-opacity:1;stroke:#000000;stroke-width:0.0377953"><tspan
         x="257.96875"
         y="80.161494"
         id="tspan7">4</tspan></text>
    <text
       xml:space="preserve"
       transform="matrix(0.26458333,0,0,0.26458333,-40.002316,174.77558)"
       id="text1-23"
       style="font-size:53.3333px;white-space:pre;shape-inside:url(#rect1-0);fill:#000000;fill-opacity:1;stroke:#000000;stroke-width:0.0377953"><tspan
         x="257.96875"
         y="80.161494"
         id="tspan8">5</tspan></text>
  </g>
</svg>
